<?xml version="1.0" encoding="utf-8"?>
<!-- Generator: Adobe Illustrator 23.0.3, SVG Export Plug-In . SVG Version: 6.00 Build 0)  -->
<svg version="1.1" id="Layer_1" xmlns="http://www.w3.org/2000/svg" xmlns:xlink="http://www.w3.org/1999/xlink" x="0px" y="0px"
	 width="200px" height="40px" viewBox="0 0 200 40" style="enable-background:new 0 0 200 40;" xml:space="preserve">
<g>
	<path d="M25.6,9.1c-1.5-1.8-3.5-3.2-6-4.2s-5.5-1.6-9.1-1.6H0v35.3h12.3c2.4,0,4.7-0.4,6.8-1.2c2.1-0.8,4-1.9,5.7-3.4
		c1.6-1.5,2.9-3.3,3.9-5.4c0.9-2.1,1.4-4.5,1.4-7.1c0-2.2-0.4-4.4-1.1-6.6C28.3,12.9,27.2,10.9,25.6,9.1z M22,25.8
		c-0.6,1.4-1.4,2.5-2.4,3.4c-1,0.9-2.3,1.6-3.7,2c-1.4,0.5-3,0.7-4.8,0.7H7V10h5.7c0.8,0,1.8,0.2,2.9,0.5c1.2,0.3,2.3,0.9,3.4,1.7
		c1.1,0.8,2,1.9,2.8,3.4c0.8,1.5,1.1,3.3,1.1,5.6C22.8,22.9,22.6,24.4,22,25.8z"/>
	<path d="M44.9,19.4c-1,0.9-1.8,1.9-2.5,3.1l-0.5-4.8h-6v21h6.7v-8.2c0-1.2,0.3-2.4,0.9-3.6c0.6-1.2,1.5-2.1,2.6-2.8
		c1.1-0.7,2.5-1,4-0.8l0.3-6.7c-0.5,0-1.3,0.2-2.4,0.7C47,17.8,46,18.5,44.9,19.4z"/>
	<path d="M59.1,6.8c-0.9,0-1.7,0.3-2.5,1c-0.8,0.6-1.2,1.5-1.2,2.4c0,1,0.4,1.8,1.2,2.4c0.8,0.6,1.6,0.9,2.5,0.9s1.7-0.3,2.5-0.9
		c0.8-0.6,1.1-1.4,1.1-2.4c0-1-0.4-1.8-1.1-2.4C60.8,7.1,60,6.8,59.1,6.8z"/>
	<rect x="55.6" y="17.7" width="6.7" height="21"/>
	<path d="M88.7,18.4c-1.3-1.2-3-1.8-5-1.8c-2,0-3.6,0.4-4.9,1.2c-1.3,0.8-2.3,1.8-3.1,3.1l-0.5-3.3h-6.1v21h6.7v-8.5
		c0-1.5,0.2-2.8,0.6-4c0.4-1.2,1-2.1,1.8-2.7c0.8-0.7,1.7-1,2.7-1c1.1,0,1.9,0.3,2.3,0.8c0.5,0.6,0.7,1.3,0.7,2.2v13.2h6.7V23
		C90.8,21.1,90.1,19.6,88.7,18.4z"/>
	<polygon points="118.5,20.7 114.4,17.1 104.4,24.5 104.4,0.8 97.7,0.8 97.7,38.6 104.4,38.6 104.4,31.3 106.3,29.9 111.4,38.6 
		119.2,38.6 111,26.3 	"/>
	<polygon points="143,27.3 125,1.9 125,1.9 125,38.6 131.7,38.6 131.7,22.8 142.8,38.2 142.9,38.2 154.4,21.8 154.4,38.6 
		161.4,38.6 161.4,1.9 161.3,1.9 	"/>
	<path d="M187.3,19.3c-1.9-1.7-4.4-2.6-7.4-2.6c-2.2,0-4.3,0.5-6.1,1.5c-1.8,1-3.3,2.4-4.4,4.1c-1.1,1.7-1.6,3.6-1.6,5.7
		c0,2.2,0.5,4.2,1.4,5.9c0.9,1.7,2.3,3,4.1,4c1.8,1,3.9,1.4,6.5,1.4c1.2,0,2.4-0.2,3.7-0.6c1.3-0.4,2.5-0.9,3.6-1.5l-3-5
		c-0.7,0.4-1.4,0.8-2,1c-0.7,0.3-1.4,0.4-2.1,0.4c-1,0-2-0.2-2.8-0.7c-0.5-0.3-1-0.7-1.4-1.1l15.3-4.9
		C190.5,23.5,189.2,21,187.3,19.3z M175,24.6c0.4-0.8,1-1.5,1.7-2c0.8-0.5,1.6-0.7,2.6-0.7c1.3,0,2.3,0.3,3,0.9
		c0.6,0.6,1.1,1.3,1.3,2l-9.2,3.1c0-0.1,0-0.3,0-0.4C174.4,26.4,174.6,25.4,175,24.6z"/>
	<path d="M198.9,32.7c-0.7-0.7-1.5-1-2.3-1c-0.9,0-1.7,0.3-2.4,1c-0.7,0.7-1.1,1.5-1.1,2.5c0,1.1,0.4,1.9,1.1,2.5
		c0.7,0.6,1.5,0.9,2.4,0.9c0.8,0,1.6-0.3,2.3-0.9c0.7-0.6,1.1-1.5,1.1-2.5C200,34.2,199.6,33.4,198.9,32.7z"/>
</g>
</svg>
